<svg version="1.1" id="Layer_1" xmlns="http://www.w3.org/2000/svg" xmlns:xlink="http://www.w3.org/1999/xlink" x="0px" y="0px"
	 viewBox="0 0 538.2 162.4" style="enable-background:new 0 0 538.2 162.4;" xml:space="preserve">
<style type="text/css">
	.logo-st{fill:#ffffff;}
</style>
<g>
	<path class="logo-st" d="M133.5,37.6c6,5,9.1,13.3,9.1,24.9v62.1h-24.7V68.5c0-4.9-0.6-8.6-1.9-11.2c-2.4-4.7-6.8-7.1-13.4-7.1
		c-8.1,0-13.7,3.5-16.7,10.4c-1.6,3.7-2.4,8.4-2.4,14.1v50H59.3V32.5h23.4V46c3.1-4.7,6-8.2,8.8-10.2c4.9-3.7,11.2-5.6,18.8-5.6
		C119.7,30.1,127.5,32.6,133.5,37.6z"/>
	<path class="logo-st" d="M203.2,33.8c4.3,2.5,7.9,5.9,10.6,10.2V0h24.5v124.6h-23.5v-12.8c-3.4,5.5-7.4,9.5-11.8,11.9
		s-9.9,3.7-16.4,3.7c-10.8,0-19.9-4.4-27.2-13.1c-7.4-8.7-11-19.9-11-33.6c0-15.7,3.6-28.1,10.9-37.2c7.3-9,16.9-13.5,29.1-13.5
		C193.9,30.1,198.9,31.4,203.2,33.8z M209.1,99.6c3.6-5.1,5.3-11.7,5.3-19.7c0-11.3-2.9-19.4-8.6-24.2c-3.5-2.9-7.6-4.4-12.2-4.4
		c-7.1,0-12.2,2.7-15.5,8c-3.3,5.3-5,12-5,19.9c0,8.5,1.7,15.3,5,20.4c3.4,5.1,8.5,7.7,15.3,7.7C200.4,107.2,205.6,104.7,209.1,99.6
		z"/>
	<path class="logo-st" d="M268.2,95.2c0.5,4.3,1.6,7.3,3.3,9.1c3,3.2,8.6,4.8,16.7,4.8c4.8,0,8.6-0.7,11.4-2.1c2.8-1.4,4.2-3.5,4.2-6.4
		c0-2.7-1.1-4.8-3.4-6.2c-2.3-1.4-10.7-3.8-25.2-7.3c-10.5-2.6-17.9-5.8-22.2-9.7c-4.3-3.8-6.4-9.4-6.4-16.6c0-8.5,3.4-15.8,10.1-22
		c6.7-6.1,16.1-9.2,28.3-9.2c11.5,0,20.9,2.3,28.2,6.9c7.3,4.6,11.4,12.5,12.5,23.8h-24.1c-0.3-3.1-1.2-5.6-2.6-7.4
		c-2.7-3.3-7.2-4.9-13.6-4.9c-5.3,0-9,0.8-11.2,2.5c-2.2,1.6-3.4,3.6-3.4,5.8c0,2.8,1.2,4.8,3.6,6c2.4,1.3,10.8,3.5,25.2,6.7
		c9.6,2.3,16.8,5.7,21.6,10.2c4.7,4.6,7.1,10.4,7.1,17.4c0,9.1-3.4,16.6-10.2,22.4s-17.3,8.7-31.6,8.7c-14.5,0-25.3-3.1-32.2-9.2
		c-6.9-6.1-10.4-13.9-10.4-23.4H268.2z"/>
	<path class="logo-st" d="M380.8,32.3c5.9,2.4,10.6,6.9,14.2,13.4V32.3h23.5v87.6c0,11.9-2,20.9-6,26.9c-6.9,10.4-20.1,15.6-39.6,15.6
		c-11.8,0-21.4-2.3-28.9-6.9c-7.5-4.6-11.6-11.5-12.4-20.7h26.2c0.7,2.8,1.8,4.9,3.3,6.1c2.6,2.2,7,3.3,13.1,3.3
		c8.7,0,14.5-2.9,17.4-8.7c1.9-3.7,2.9-10,2.9-18.8v-5.9c-2.3,4-4.8,6.9-7.5,8.9c-4.8,3.7-11,5.5-18.7,5.5
		c-11.9,0-21.3-4.2-28.4-12.5c-7.1-8.3-10.6-19.6-10.6-33.8c0-13.7,3.4-25.2,10.2-34.6c6.8-9.3,16.5-14,29-14
		C373.3,30.1,377.4,30.8,380.8,32.3z M389,98.4c3.9-4.3,5.8-11,5.8-20.4c0-8.7-1.8-15.4-5.5-20c-3.7-4.6-8.6-6.9-14.8-6.9
		c-8.4,0-14.2,4-17.5,11.9c-1.7,4.2-2.5,9.5-2.5,15.7c0,5.4,0.9,10.1,2.7,14.3c3.3,7.8,9.1,11.7,17.5,11.7
		C380.4,104.8,385.1,102.7,389,98.4z"/>
	<path class="logo-st" d="M504.7,37.6c6,5,9.1,13.3,9.1,24.9v62.1h-24.7V68.5c0-4.9-0.6-8.6-1.9-11.2c-2.4-4.7-6.8-7.1-13.4-7.1
		c-8.1,0-13.7,3.5-16.7,10.4c-1.6,3.7-2.4,8.4-2.4,14.1v50h-24.1V32.5h23.4V46c3.1-4.7,6-8.2,8.8-10.2c4.9-3.7,11.2-5.6,18.8-5.6
		C490.9,30.1,498.7,32.6,504.7,37.6z"/>
</g>
<g>
	<path class="logo-st" d="M24.7,32.3V88c0,5.2,0.6,9.2,1.9,11.9c2.2,4.7,6.5,7,12.9,7c8.2,0,13.8-3.3,16.9-10c1.6-3.6,2.4-8.4,2.4-14.3
		V32.3h24.5v92.3H59.7v-13c-0.2,0.3-0.8,1.1-1.7,2.5c-0.9,1.4-2,2.7-3.2,3.7c-3.8,3.4-7.4,5.7-10.9,6.9c-3.5,1.2-7.6,1.9-12.4,1.9
		c-13.6,0-22.8-4.9-27.5-14.7c-2.6-5.4-4-13.4-4-24V32.3H24.7z"/>
</g>
<g>
	<path class="logo-st" d="M526,30.2v2h-3.4v9.3h-2.4v-9.3h-3.4v-2H526z"/>
	<path class="logo-st" d="M534.8,30.2h3.4v11.3H536v-7.6c0-0.2,0-0.5,0-0.9c0-0.4,0-0.7,0-0.9l-2.1,9.5h-2.3l-2.1-9.5c0,0.2,0,0.5,0,0.9
		c0,0.4,0,0.7,0,0.9v7.6h-2.2V30.2h3.4l2.1,8.9L534.8,30.2z"/>
</g>
</svg>
